<svg width="24" height="24" viewBox="0 0 24 24" fill="none" xmlns="http://www.w3.org/2000/svg">
<g opacity="0.2">
<path fill-rule="evenodd" clip-rule="evenodd" d="M10.3338 5.72885C9.74503 5.27095 8.8944 5.31215 8.3534 5.85315C7.76762 6.43895 7.76762 7.38875 8.3534 7.97445L11.9282 11.5494L11.989 11.6182C12.1328 11.8135 12.116 12.0906 11.9392 12.2674L8.34243 15.8642L8.23864 15.9817L8.22905 15.9941C7.77119 16.5829 7.81241 17.4335 8.3534 17.9745C8.93919 18.5603 9.88893 18.5603 10.4747 17.9745L14.0662 14.383L14.2122 14.2272L14.2176 14.2211C15.4251 12.846 15.3728 10.7513 14.0605 9.43895L10.4637 5.84215L10.3462 5.73845L10.3338 5.72885Z" fill="#0090D9"/>
</g>
</svg>
