<svg width="16" height="16" viewBox="0 0 16 16" fill="none" xmlns="http://www.w3.org/2000/svg">
<path d="M5.12126 2.29289C5.48175 1.93241 6.04898 1.90468 6.44127 2.2097L6.53548 2.29289L10.1213 5.87868C11.246 7.00339 11.291 8.79895 10.2562 9.97733L10.1213 10.1213L6.53548 13.7071C6.14495 14.0976 5.51179 14.0976 5.12126 13.7071C4.76078 13.3466 4.73305 12.7794 5.03807 12.3871L5.12126 12.2929L8.70705 8.70711C9.06753 8.34662 9.09526 7.77939 8.79024 7.3871L8.70705 7.29289L5.12126 3.70711C4.73074 3.31658 4.73074 2.68342 5.12126 2.29289Z" fill="#FFA66B"/>
<rect width="16" height="16" transform="matrix(-1 0 0 1 16 0)" fill="black" fill-opacity="0.01"/>
</svg>
